# AST/ASF file generated using VICON BodyLanguage
# -----------------------------------------------
:version 1.10
:name VICON
:units
  mass 1.0
  length 0.45
  angle deg
:documentation
   .ast/.asf automatically generated from VICON data using
   VICON BodyBuilder and BodyLanguage model FoxedUp or BRILLIANT.MOD
:root
   order TX TY TZ RX RY RZ
   axis XYZ
   position 0 0 0  
   orientation 0 0 0 
:bonedata
  begin
     id 1 
     name lhipjoint
     direction 0.690799 -0.707083 0.151096 
     length 2.54797 
     axis 0 0 0  XYZ
  end
  begin
     id 2 
     name lfemur
     direction 0.34202 -0.939693 0  
     length 7.21646  
     axis 0 0 20  XYZ
    dof rx ry rz
    limits (-160.0 20.0)
           (-70.0 70.0)
           (-60.0 70.0)
  end
  begin
     id 3 
     name ltibia
     direction 0.34202 -0.939693 0   
     length 8.16759   
     axis 0 0 20   XYZ
    dof rx
    limits (-10.0 170.0)
  end
  begin
     id 4 
     name lfoot
     direction 0.0487203 -0.133858 0.989802   
     length 1.93375   
     axis -90 7.62852e-016 20   XYZ
    dof rx rz
    limits (-45.0 90.0)
           (-70.0 20.0)
  end
  begin
     id 5 
     name ltoes
     direction 1.53453e-011 -4.21783e-011 1   
     length 0.979747   
     axis -90 7.62852e-016 20   XYZ
    dof rx
    limits (-90.0 20.0)
  end
  begin
     id 6 
     name rhipjoint
     direction -0.694693 -0.703425 0.150315   
     length 2.56122  
     axis 0 0 0  XYZ 
  end
  begin
     id 7 
     name rfemur
     direction -0.34202 -0.939693 0   
     length 7.36786   
     axis 0 0 -20   XYZ
    dof rx ry rz
    limits (-160.0 20.0)
           (-70.0 70.0)
           (-70.0 60.0)
  end
  begin
     id 8 
     name rtibia
     direction -0.34202 -0.939693 0   
     length 8.07288   
     axis 0 0 -20   XYZ
    dof rx
    limits (-10.0 170.0)
 end
 begin
     id 9 
     name rfoot
     direction -0.0428397 -0.117701 0.992125   
     length 1.88295  
     axis -90 -7.62852e-016 -20   XYZ
    dof rx rz
    limits (-45.0 90.0)
           (-20.0 70.0)
  end
  begin
     id 10 
     name rtoes
     direction -1.53456e-011 -4.2187e-011 1   
     length 0.955578   
     axis -90 -7.62852e-016 -20   XYZ
    dof rx
    limits (-90.0 20.0)
  end
  begin
     id 11 
     name lowerback
     direction 0.0288145 0.999398 -0.0193241   
     length 1.92149   
     axis 0 0 0   XYZ
    dof rx ry rz
    limits (-20.0 45.0)
           (-30.0 30.0)
           (-30.0 30.0)
  end
  begin
     id 12 
     name upperback
     direction 0.0233784 0.998099 0.0570278   
     length 1.90435   
     axis 0 0 0   XYZ
    dof rx ry rz
    limits (-20.0 45.0)
           (-30.0 30.0)
           (-30.0 30.0)
  end
  begin
     id 13 
     name thorax
     direction 0.0096694 0.997833 0.0650817   
     length 1.9111   
     axis 0 0 0   XYZ
    dof rx ry rz
    limits (-20.0 45.0)
           (-30.0 30.0)
           (-30.0 30.0)
  end
  begin
     id 14 
     name lowerneck
     direction 0.00516803 0.999916 0.0118722   
     length 1.74664   
     axis 0 0 0   XYZ
    dof rx ry rz
    limits (-20.0 45.0)
           (-30.0 30.0)
           (-30.0 30.0)
  end
  begin
     id 15 
     name upperneck
     direction -0.0510851 0.996117 -0.071696   
     length 1.68498   
     axis 0 0 0   XYZ
    dof rx ry rz
    limits (-20.0 45.0)
           (-30.0 30.0)
           (-30.0 30.0)
  end
  begin
     id 16
     name head
     direction -0.019188 0.999436 -0.0275702  
     length 1.83483  
     axis 0 0 0   XYZ
    dof rx ry rz
    limits (-20.0 45.0)
           (-30.0 30.0)
           (-30.0 30.0)
  end
  begin
     id 17 
     name lclavicle
     direction 0.967006 0.248456 -0.0562957  
     length 3.39395  
     axis 0 0 0   XYZ
    dof ry rz
    limits (-20.0 10.0)
           (0.0 20.0)
  end
  begin
     id 18 
     name lhumerus
     direction 1 -4.48962e-011 -5.62711e-019   
     length 5.24318   
     axis 180 -30 -90   XYZ
    dof rx ry rz
    limits (-60.0 90.0)
           (-90.0 90.0)
           (-90.0 90.0)
  end
  begin
     id 19
     name lradius
     direction 1 -4.48966e-011 7.90625e-027   
     length 2.98999   
     axis 180 -30 -90   XYZ
    dof rx
    limits (-10.0 170.0)
  end
  begin
     id 20
     name lwrist
     direction 1 -4.48959e-011 1.61068e-026   
     length 1.49499   
     axis -9.31229e-015 90 90   XYZ
    dof ry
    limits (-180.0 0.0)
 end
  begin
     id 21 
     name lhand
     direction 1 -4.49017e-011 3.22136e-026   
     length 0.726745   
     axis -2.0555e-014 90 90   XYZ
    dof rx rz
    limits (-90.0 90.0)
           (-45.0 45.0)
  end
  begin
     id 22 
     name lfingers
     direction 1 -4.4898e-011 6.44272e-026   
     length 0.58592   
     axis -4.11101e-014 90 90   XYZ
    dof rx
    limits (0.0 90.0)
  end
  begin
     id 23
     name lthumb
     direction 0.707107 -6.34922e-011 0.707107   
     length 0.841268   
     axis -90 45 2.85299e-015   XYZ
    dof rx rz
    limits (-45.0 45.0)
           (-45.0 45.0)
  end
  begin
     id 24 
     name rclavicle
     direction -0.972232 0.230238 0.0419005   
     length 3.40416  
     axis 0 0 0   XYZ 
    dof ry rz
    limits (-10.0 20.0)
           (-20.0 0.0)
  end
  begin
     id 25 
     name rhumerus
     direction -1 -4.48976e-011 2.48487e-027  
     length 5.37045   
     axis 180 30 90   XYZ
    dof rx ry rz
    limits (-90.0 60.0)
           (-90.0 90.0)
           (-90.0 90.0)
  end
  begin
     id 26 
     name rradius
     direction -1 -4.48942e-011 7.87951e-027   
     length 2.92792   
     axis 180 30 90   XYZ
    dof rx
    limits (-10.0 170.0)
  end
  begin
     id 27 
     name rwrist
     direction -1 -4.48969e-011 1.61068e-026   
     length 1.46396   
     axis -9.31229e-015 -90 -90   XYZ
    dof ry
    limits (-180.0 0.0)
  end
  begin
     id 28
     name rhand
     direction -1 -4.49043e-011 3.22136e-026   
     length 0.784497   
     axis -2.0555e-014 -90 -90   XYZ
    dof rx rz
    limits (-90.0 90.0)
           (-45.0 45.0)
  end
  begin
     id 29
     name rfingers
     direction -1 -4.48823e-011 6.44272e-026   
     length 0.632482   
     axis -4.11101e-014 -90 -90   XYZ
    dof rx
    limits (0.0 90.0)
  end
  begin
     id 30
     name rthumb
     direction -0.707107 -6.34923e-011 0.707107   
     length 0.908121   
     axis -90 -45 -2.85299e-015   XYZ
    dof rx rz
    limits (-45.0 45.0)
           (-45.0 45.0)
  end
:hierarchy
  begin
    root lhipjoint rhipjoint lowerback
    lhipjoint lfemur
    lfemur ltibia
    ltibia lfoot
    lfoot ltoes
    rhipjoint rfemur
    rfemur rtibia
    rtibia rfoot
    rfoot rtoes
    lowerback upperback
    upperback thorax
    thorax lowerneck lclavicle rclavicle
    lowerneck upperneck
    upperneck head
    lclavicle lhumerus
    lhumerus lradius
    lradius lwrist
    lwrist lhand lthumb
    lhand lfingers
    rclavicle rhumerus
    rhumerus rradius
    rradius rwrist
    rwrist rhand rthumb
    rhand rfingers
  end

#!OML:ASF E:\Style6\Style6.ASF
:FULLY-SPECIFIED
:DEGREES
128
root 1.54779 16.0051 -1.24179 21.5504 -24.8419 -2.36844
lowerback 28.7068 -4.50886 5.2245
upperback 12.8107 -4.54105 3.22617
thorax -1.44125 -2.2841 1.88132
lowerneck -3.06848 -5.38521 2.33285
upperneck -22.0444 -8.22854 -1.22414
head -6.35203 -4.37045 -0.375607
rclavicle -1.51076e-014 -1.85864e-014
rhumerus 1.80604 12.5113 -62.3953
rradius 78.3571
rwrist -29.9295
rhand 6.23404 8.37998
rfingers 7.12502
rthumb 31.5463 -18.9159
lclavicle -1.51076e-014 -1.85864e-014
lhumerus 53.4961 -57.3668 16.8334
lradius 43.7299
lwrist 23.5659
lhand 19.1626 21.9299
lfingers 7.12502
lthumb 43.7542 45.9039
rfemur -64.5047 -3.32554 21.7693
rtibia 57.8056
rfoot -6.13401 11.5733
rtoes -0.0305613
lfemur -63.6102 32.7141 -35.2867
ltibia 66.3962
lfoot -22.2089 -1.80456
ltoes -2.39808
129
root 1.55111 16.0052 -1.22866 20.9116 -24.7017 -1.99251
lowerback 28.4602 -4.5077 5.52125
upperback 12.8042 -4.48313 3.29518
thorax -1.34722 -2.24371 1.75673
lowerneck -3.32053 -5.69155 2.60731
upperneck -21.8986 -8.66819 -1.29988
head -6.28917 -4.60769 -0.43343
rclavicle 2.92213e-014 -4.67641e-014
rhumerus 1.26114 11.0029 -62.7323
rradius 77.1042
rwrist -30.7717
rhand 6.33302 8.11027
rfingers 7.12502
rthumb 31.6406 -19.1671
lclavicle 2.92213e-014 -4.67641e-014
lhumerus 53.0194 -57.2899 17.8675
lradius 43.5337
lwrist 23.5949
lhand 18.7789 22.1377
lfingers 7.12502
lthumb 43.3959 46.2422
rfemur -64.0556 -3.46469 21.282
rtibia 58.1646
rfoot -6.59697 11.4099
rtoes -0.45286
lfemur -62.7612 32.6031 -35.2411
ltibia 66.3118
lfoot -22.3265 -1.50628
ltoes -4.37635
130
root 1.55357 16.0075 -1.21596 20.1875 -24.5007 -1.55718
lowerback 28.3012 -4.55249 5.74933
upperback 12.8466 -4.49623 3.36474
thorax -1.23282 -2.24065 1.69619
lowerneck -3.77455 -5.92953 2.97373
upperneck -21.6474 -9.04813 -1.56166
head -6.17186 -4.81317 -0.577677
rclavicle -9.56651e-015 4.11609e-014
rhumerus 0.950189 9.59657 -63.0169
rradius 75.7751
rwrist -31.5644
rhand 6.49662 7.86889
rfingers 7.12502
rthumb 31.7964 -19.3777
lclavicle -9.56651e-015 4.11609e-014
lhumerus 52.5467 -57.1157 18.8025
lradius 43.387
lwrist 23.7002
lhand 18.6102 22.4204
lfingers 7.12502
lthumb 43.2382 46.5816
rfemur -63.518 -3.65337 20.745
rtibia 58.4907
rfoot -7.02339 11.23
rtoes -0.708062
lfemur -61.79 32.4282 -35.1672
ltibia 66.1867
lfoot -22.3796 -1.50994
ltoes -4.66754
131
root 1.55635 16.0093 -1.20937 19.5386 -24.2226 -1.224
lowerback 28.2144 -4.62372 6.00389
upperback 12.7641 -4.51338 3.56549
thorax -1.28225 -2.24506 1.77659
lowerneck -3.84722 -6.18816 2.89529
upperneck -21.4763 -9.42497 -1.6655
head -6.11694 -4.9866 -0.585637
rclavicle 5.46658e-015 -2.66371e-014
rhumerus 0.496169 8.53669 -63.0986
rradius 74.4944
rwrist -32.2865
rhand 6.30812 7.77302
rfingers 7.12502
rthumb 31.6169 -19.509
lclavicle 5.46658e-015 -2.66371e-014
lhumerus 51.7651 -57.1199 20.2067
lradius 43.1453
lwrist 23.7969
lhand 18.524 22.5565
lfingers 7.12502
lthumb 43.1577 46.7465
rfemur -63.0072 -3.82456 20.3257
rtibia 58.8015
rfoot -7.53994 11.0009
rtoes -2.07415
lfemur -61.0554 32.2228 -35.0172
ltibia 66.1289
lfoot -22.2276 -1.77518
ltoes -2.91925
132
root 1.56026 16.0091 -1.20459 18.8841 -24.0134 -0.780864
lowerback 28.1362 -4.64194 6.06736
upperback 12.6157 -4.50208 3.80451
thorax -1.39675 -2.24523 2.00118
lowerneck -3.67418 -6.45401 2.6486
upperneck -21.438 -9.81135 -1.75268
head -6.13658 -5.14912 -0.548477
rclavicle -1.78906e-015 3.04141e-014
rhumerus -0.0188641 7.65968 -62.9866
rradius 73.2276
rwrist -32.9163
rhand 5.96344 7.53388
rfingers 7.12502
rthumb 31.2885 -19.8122
lclavicle -1.78906e-015 3.04141e-014
lhumerus 50.6647 -57.1484 22.0452
lradius 42.8515
lwrist 23.6379
lhand 18.5197 22.6413
lfingers 7.12502
lthumb 43.1536 46.8327
rfemur -62.5837 -3.97717 19.7751
rtibia 59.1554
rfoot -8.00591 10.7153
rtoes -3.53433
lfemur -60.3734 32.0305 -35.0395
ltibia 66.0987
lfoot -22.1042 -2.06834
ltoes -0.701638
133
root 1.56233 15.9957 -1.19994 18.314 -23.8429 -0.314022
lowerback 27.937 -4.64278 6.10256
upperback 12.4917 -4.49189 3.98919
thorax -1.4321 -2.24374 2.17248
lowerneck -3.54815 -6.70935 2.49093
upperneck -21.4192 -10.1875 -1.85094
head -6.15923 -5.31371 -0.5305
rclavicle 3.57812e-015 -2.64384e-014
rhumerus -0.458877 6.76239 -62.9286
rradius 71.9055
rwrist -33.5174
rhand 5.78089 7.19902
rfingers 7.12502
rthumb 31.1145 -20.1806
lclavicle 3.57812e-015 -2.64384e-014
lhumerus 49.7412 -57.1185 23.5786
lradius 42.5925
lwrist 23.4047
lhand 18.6606 22.7256
lfingers 7.12502
lthumb 43.2853 46.87
rfemur -62.3212 -4.05704 19.1751
rtibia 59.5531
rfoot -8.40521 10.3732
rtoes -4.46739
lfemur -59.7332 31.8199 -35.1327
ltibia 66.0824
lfoot -22.1641 -2.28895
ltoes 0.711234
134
root 1.564 15.9802 -1.19549 17.7477 -23.6292 0.144928
lowerback 27.6919 -4.67077 6.22702
upperback 12.407 -4.50428 4.1277
thorax -1.41031 -2.24721 2.24455
lowerneck -3.44626 -6.9685 2.39452
upperneck -21.3879 -10.5623 -1.92186
head -6.17561 -5.48438 -0.514707
rclavicle -1.47101e-014 3.73715e-014
rhumerus -0.864554 5.86352 -62.9572
rradius 70.5388
rwrist -34.2171
rhand 5.64985 7.20911
rfingers 7.12502
rthumb 30.9896 -20.1944
lclavicle -1.47101e-014 3.73715e-014
lhumerus 49.1672 -57.1149 24.7146
lradius 42.3391
lwrist 23.3539
lhand 18.6949 22.8616
lfingers 7.12502
lthumb 43.3174 46.9944
rfemur -62.0689 -4.19431 18.6199
rtibia 59.9499
rfoot -8.81528 10.0754
rtoes -5.68989
lfemur -59.0852 31.5526 -35.21
ltibia 66.0314
lfoot -22.2494 -2.17983
ltoes 0.36405
135
root 1.56775 15.9771 -1.19111 17.1699 -23.3619 0.559211
lowerback 27.5088 -4.7209 6.39696
upperback 12.3186 -4.5273 4.27066
thorax -1.42251 -2.25473 2.30378
lowerneck -3.32024 -7.1886 2.43336
upperneck -21.3936 -10.9012 -2.09831
head -6.22024 -5.63954 -0.552248
rclavicle 2.8625e-014 -1.07344e-014
rhumerus -1.18274 4.9968 -62.9805
rradius 69.0767
rwrist -35.0105
rhand 5.38073 7.32624
rfingers 7.12502
rthumb 30.7331 -20.1258
lclavicle 2.8625e-014 -1.07344e-014
lhumerus 48.5728 -57.0782 25.9124
lradius 42.0235
lwrist 23.3338
lhand 18.8313 22.8689
lfingers 7.12502
lthumb 43.4448 46.9558
rfemur -61.701 -4.41405 18.1425
rtibia 60.2769
rfoot -9.17983 9.81935
rtoes -6.65864
lfemur -58.3898 31.2589 -35.2319
ltibia 65.914
lfoot -22.3498 -1.83266
ltoes -1.21241
136
root 1.57203 15.982 -1.18758 16.6158 -23.0797 0.974334
lowerback 27.315 -4.75269 6.56544
upperback 12.2325 -4.52973 4.40661
thorax -1.42757 -2.25176 2.34927
lowerneck -3.18431 -7.40145 2.52956
upperneck -21.4381 -11.2346 -2.29326
head -6.28402 -5.79444 -0.602606
rclavicle 3.18055e-015 -1.31198e-014
rhumerus -1.46905 4.10636 -62.9703
rradius 67.5264
rwrist -35.7871
rhand 5.39282 6.88255
rfingers 7.12502
rthumb 30.7446 -20.5673
lclavicle 3.18055e-015 -1.31198e-014
lhumerus 48.338 -57.089 26.6892
lradius 41.7443
lwrist 23.3687
lhand 18.9415 22.9071
lfingers 7.12502
lthumb 43.5478 46.9565
rfemur -61.3064 -4.65282 17.6631
rtibia 60.548
rfoot -9.49803 9.61325
rtoes -7.25584
lfemur -57.6842 30.9501 -35.2672
ltibia 65.7407
lfoot -22.4008 -1.5512
ltoes -2.44381
137
root 1.57476 15.9853 -1.18301 16.0503 -22.877 1.43305
lowerback 27.096 -4.74645 6.65588
upperback 12.191 -4.51325 4.49313
thorax -1.3706 -2.24023 2.37459
lowerneck -3.18131 -7.61411 2.72663
upperneck -21.4249 -11.5694 -2.50907
head -6.31542 -5.95915 -0.682047
rclavicle -2.06736e-014 -1.35174e-014
rhumerus -1.64638 3.09097 -63.0443
rradius 65.86
rwrist -36.2945
rhand 5.87563 5.93852
rfingers 7.12502
rthumb 31.2048 -21.4237
lclavicle -2.06736e-014 -1.35174e-014
lhumerus 48.3028 -57.1112 27.1463
lradius 41.5984
lwrist 23.4584
lhand 18.9989 23.0916
lfingers 7.12502
lthumb 43.6014 47.1216
rfemur -60.92 -4.8609 17.1238
rtibia 60.7982
rfoot -9.71525 9.54933
rtoes -6.91712
lfemur -56.9774 30.7118 -35.3724
ltibia 65.561
lfoot -22.3569 -1.63176
ltoes -1.75136
138
root 1.57802 15.9818 -1.17693 15.3962 -22.6943 1.96659
lowerback 26.9721 -4.77168 6.6438
upperback 12.1446 -4.55032 4.56617
thorax -1.35859 -2.25911 2.46469
lowerneck -3.11198 -7.8003 2.80136
upperneck -21.4328 -11.8594 -2.67024
head -6.3538 -6.0948 -0.723748
rclavicle -2.3059e-014 -3.57812e-015
rhumerus -1.72674 1.99401 -63.1787
rradius 64.1269
rwrist -36.3115
rhand 6.52287 5.90653
rfingers 7.12502
rthumb 31.8214 -21.3351
lclavicle -2.3059e-014 -3.57812e-015
lhumerus 48.0724 -57.1317 27.7043
lradius 41.5421
lwrist 23.6288
lhand 19.1381 23.2698
lfingers 7.12502
lthumb 43.7313 47.2522
rfemur -60.4938 -5.07348 16.4953
rtibia 61.0714
rfoot -9.98325 9.48587
rtoes -6.76773
lfemur -56.2037 30.4957 -35.527
ltibia 65.4058
lfoot -22.3611 -1.60981
ltoes -1.77685
139
root 1.57984 15.9752 -1.17208 14.8556 -22.4168 2.30974
lowerback 26.8439 -4.85271 6.70609
upperback 12.1041 -4.63915 4.70067
thorax -1.33538 -2.30325 2.59468
lowerneck -3.0576 -7.89839 2.85567
upperneck -21.4699 -12.0207 -2.79315
head -6.3915 -6.16842 -0.757351
rclavicle -4.37326e-014 4.6118e-014
rhumerus -1.69073 1.14324 -63.3089
rradius 62.3415
rwrist -36.3593
rhand 6.71292 6.58359
rfingers 7.12502
rthumb 32.0024 -20.6219
lclavicle -4.37326e-014 4.6118e-014
lhumerus 47.6564 -57.1063 28.3677
lradius 41.4722
lwrist 23.6898
lhand 18.9569 23.3204
lfingers 7.12502
lthumb 43.5621 47.3647
rfemur -60.0864 -5.26189 16.0767
rtibia 61.3336
rfoot -10.3564 9.27553
rtoes -7.91971
lfemur -55.5411 30.2611 -35.5052
ltibia 65.2991
lfoot -22.4055 -1.41379
ltoes -2.56838
140
root 1.57983 15.9727 -1.17063 14.3827 -22.1055 2.60969
lowerback 26.6596 -4.96423 6.71042
upperback 12.1223 -4.79275 4.8124
thorax -1.21783 -2.37985 2.74252
lowerneck -3.13741 -7.89619 3.06217
upperneck -21.5078 -12.0484 -2.95408
head -6.41402 -6.18877 -0.840459
rclavicle -3.49861e-014 4.29375e-014
rhumerus -1.50371 0.605645 -63.5492
rradius 60.5804
rwrist -36.8212
rhand 6.36267 6.44604
rfingers 7.12502
rthumb 31.6688 -20.8258
lclavicle -3.49861e-014 4.29375e-014
lhumerus 47.317 -56.9905 28.7686
lradius 41.3983
lwrist 23.699
lhand 18.6803 23.2778
lfingers 7.12502
lthumb 43.3038 47.4155
rfemur -59.7078 -5.43681 15.7036
rtibia 61.5514
rfoot -10.7202 8.99055
rtoes -9.64786
lfemur -54.9355 29.9461 -35.4477
ltibia 65.1816
lfoot -22.3717 -1.28323
ltoes -2.67582
141
root 1.58188 15.9772 -1.16793 13.8663 -21.8125 2.89289
lowerback 26.4768 -5.06441 6.80721
upperback 12.1701 -4.91571 4.90414
thorax -1.07418 -2.43695 2.80647
lowerneck -3.34192 -7.92382 3.28597
upperneck -21.3689 -12.1222 -3.19357
head -6.3664 -6.23082 -0.95872
rclavicle 1.06549e-013 -9.78021e-014
rhumerus -1.38676 -0.0147993 -63.7234
rradius 58.9754
rwrist -36.9558
rhand 6.05588 6.10775
rfingers 7.12502
rthumb 31.3766 -21.2213
lclavicle 1.06549e-013 -9.78021e-014
lhumerus 47.181 -56.9441 29.0228
lradius 41.4231
lwrist 23.8902
lhand 18.886 23.3372
lfingers 7.12502
lthumb 43.496 47.4055
rfemur -59.229 -5.64997 15.3486
rtibia 61.7145
rfoot -11.0014 8.87574
rtoes -10.168
lfemur -54.2356 29.669 -35.3596
ltibia 65.0333
lfoot -22.3454 -1.2404
ltoes -2.49546
142
root 1.58758 15.9857 -1.16323 13.4012 -21.4676 3.07542
lowerback 26.2267 -5.18205 7.14514
upperback 12.1955 -5.01215 4.99828
thorax -0.938921 -2.47083 2.72723
lowerneck -3.43222 -8.00523 3.45824
upperneck -21.2272 -12.266 -3.4235
head -6.33644 -6.3007 -1.05626
rclavicle -3.02153e-014 5.1684e-014
rhumerus -1.3931 -0.772097 -63.8385
rradius 57.4138
rwrist -36.6061
rhand 5.94588 6.04372
rfingers 7.12502
rthumb 31.2717 -21.3056
lclavicle -3.02153e-014 5.1684e-014
lhumerus 47.2954 -57.05 29.0852
lradius 41.5076
lwrist 24.1372
lhand 19.4083 23.1556
lfingers 7.12502
lthumb 43.9835 47.0446
rfemur -58.7075 -5.87357 15.091
rtibia 61.8417
rfoot -11.2231 8.76482
rtoes -10.2111
lfemur -53.5402 29.3644 -35.1859
ltibia 64.867
lfoot -22.3527 -1.16183
ltoes -2.66973
